<svg width="500" height="500" viewBox="0 0 500 500" fill="none" xmlns="http://www.w3.org/2000/svg">
<g clip-path="url(#clip0_30_13)">
<path d="M246.785 418.688C362.706 418.688 456.678 410.442 456.678 400.269C456.678 390.097 362.706 381.85 246.785 381.85C130.864 381.85 36.8921 390.097 36.8921 400.269C36.8921 410.442 130.864 418.688 246.785 418.688Z" fill="#EDF0FC"/>
<path d="M393.32 391.903C393.32 391.903 362.132 328.591 457.271 300.992C457.271 300.992 463.898 396.934 393.32 391.903Z" fill="#0068FF"/>
<mask id="mask0_30_13" style="mask-type:luminance" maskUnits="userSpaceOnUse" x="388" y="300" width="70" height="93">
<path d="M393.32 391.903C393.32 391.903 362.132 328.591 457.271 300.992C457.271 300.992 463.898 396.934 393.32 391.903Z" fill="white"/>
</mask>
<g mask="url(#mask0_30_13)">
<path d="M470.029 315.729L469.484 314.817C450.676 326.012 433.557 329.942 428.499 330.923C433.21 325.358 437.856 320.259 442.061 315.844C443.952 315.492 456.914 312.801 470.074 302.995L469.438 302.145C458.36 310.399 447.461 313.528 443.366 314.48C452.502 304.981 459.255 298.962 459.457 298.783L458.75 297.989C458.545 298.17 451.647 304.32 442.349 314.009C443.246 301.951 449.166 290.139 449.228 290.017L448.278 289.538C448.213 289.666 441.778 302.493 441.21 315.202C436.994 319.635 432.338 324.75 427.618 330.332C427.957 314.55 434.714 296.059 434.784 295.868L433.786 295.501C433.712 295.699 426.516 315.381 426.537 331.618C421.986 337.059 417.407 342.917 413.127 349.006C412.294 326.273 419.013 302.825 419.083 302.585L418.06 302.291C417.988 302.536 410.941 327.111 412.12 350.449C408.954 355.034 405.97 359.738 403.315 364.484C398.607 340.046 404.675 317.862 404.738 317.637L403.713 317.351C403.648 317.583 397.297 340.756 402.515 365.942C399.911 370.725 397.655 375.539 395.884 380.307C389.863 363.215 388.693 338.735 388.954 337.322L387.906 337.131C387.625 338.661 388.71 364.2 395.318 381.875C393.702 386.498 392.555 391.068 392.023 395.509L393.079 395.635C393.593 391.347 394.69 386.935 396.232 382.47C397.473 382.728 401.056 383.339 407.22 383.339C407.706 383.339 408.211 383.336 408.731 383.328C416.689 383.204 430.119 381.99 448.895 376.916L448.616 375.892C416.598 384.545 399.794 382.077 396.584 381.454C398.365 376.505 400.693 371.496 403.397 366.52C404.254 366.604 406.485 366.785 409.736 366.785C419.971 366.785 440.086 364.97 457.582 352.52L456.964 351.655C435.02 367.271 408.89 365.923 403.955 365.505C406.672 360.6 409.745 355.735 413.021 350.996C416.304 350.663 445.533 347.314 465.004 332.136L464.349 331.301C446.32 345.353 419.761 349.148 413.826 349.84C418.158 343.661 422.808 337.714 427.427 332.199C429.934 331.777 448.942 328.28 470.029 315.729Z" fill="#5A9CFF"/>
</g>
<path opacity="0.1" d="M457.271 300.992C451.643 302.625 446.472 304.386 441.696 306.248C443.755 312.411 444.882 319.072 444.882 326.024C444.882 357.612 421.667 383.219 393.029 383.219C392.117 383.219 391.21 383.192 390.309 383.14C391.688 388.582 393.319 391.903 393.319 391.903C463.898 396.934 457.271 300.992 457.271 300.992Z" fill="#0046A0"/>
<path d="M110.443 385.212C110.443 385.212 55.1832 398.39 50.3562 318.972C50.3562 318.972 126.897 330.828 110.443 385.212Z" fill="#0068FF"/>
<mask id="mask1_30_13" style="mask-type:luminance" maskUnits="userSpaceOnUse" x="50" y="318" width="63" height="69">
<path d="M110.443 385.212C110.443 385.212 55.1832 398.39 50.3562 318.972C50.3562 318.973 126.897 330.828 110.443 385.212Z" fill="white"/>
</mask>
<g mask="url(#mask1_30_13)">
<path d="M64.1922 311.598L63.3792 311.863C68.8422 328.583 68.8962 342.689 68.7712 346.825C65.2342 342.146 62.0522 337.602 59.3282 333.524C59.3862 331.981 59.5692 321.35 54.1962 309.3L53.4162 309.647C57.9372 319.79 58.4652 328.882 58.4872 332.258C52.6442 323.415 49.1122 317.057 49.0072 316.866L48.2582 317.279C48.3642 317.472 51.9732 323.967 57.9382 332.971C48.6252 330.126 40.3942 323.391 40.3092 323.321L39.7642 323.98C39.8532 324.054 48.7902 331.373 58.6722 334.076C61.4082 338.166 64.6012 342.721 68.1502 347.41C55.8122 344.34 42.4842 335.763 42.3462 335.674L41.8812 336.39C42.0232 336.483 56.2102 345.616 68.9692 348.485C72.4372 353.016 76.2282 357.644 80.2532 362.077C62.2482 358.69 45.0182 349.262 44.8422 349.165L44.4292 349.914C44.6092 350.014 62.6652 359.9 81.2072 363.122C84.2482 366.417 87.4152 369.589 90.6722 372.512C70.6402 371.858 54.2892 363.163 54.1232 363.074L53.7172 363.826C53.8882 363.918 70.9662 373.01 91.6752 373.397C94.9712 376.286 98.3532 378.908 101.785 381.143C87.2912 382.822 67.8542 379.389 66.7902 378.934L66.4542 379.721C67.6062 380.213 87.8602 383.901 102.916 381.865C106.261 383.952 109.648 385.662 113.042 386.868L113.328 386.063C110.051 384.899 106.779 383.256 103.545 381.255C103.968 380.329 105.083 377.631 106.174 372.804C106.26 372.423 106.347 372.027 106.433 371.619C107.745 365.364 109.17 354.63 108.511 339.023L107.657 339.059C108.782 365.674 103.867 378.396 102.809 380.8C99.2372 378.526 95.7152 375.812 92.2842 372.811C92.5012 372.155 93.0392 370.44 93.6152 367.893C95.4282 359.876 97.5662 343.799 90.8852 327.885L90.0972 328.215C98.4772 348.176 92.7892 368.402 91.5872 372.193C88.2162 369.193 84.9382 365.922 81.7952 362.515C82.1152 359.885 84.6622 336.397 76.1882 318.45L75.4162 318.815C83.2612 335.432 81.5372 356.908 81.0302 361.679C76.9432 357.188 73.0962 352.49 69.5812 347.892C69.6962 345.853 70.3172 330.344 64.1922 311.598Z" fill="#5A9CFF"/>
</g>
<path opacity="0.1" d="M50.3562 318.973C50.6412 323.671 51.1092 328.034 51.7262 332.106C56.9332 331.588 62.3652 331.889 67.8262 333.124C92.6402 338.736 108.643 361.468 103.57 383.898C103.408 384.612 103.226 385.318 103.026 386.014C107.546 385.901 110.443 385.213 110.443 385.213C126.897 330.828 50.3562 318.973 50.3562 318.973Z" fill="#0046A0"/>
<path d="M404.607 349.989C404.607 354.389 401.007 357.989 396.607 357.989H96.9631C92.5631 357.989 88.9631 354.389 88.9631 349.989V169.426C88.9631 165.026 92.5631 161.426 96.9631 161.426H396.607C401.007 161.426 404.607 165.026 404.607 169.426V349.989Z" fill="#5A9CFF"/>
<path d="M395.698 171.066H97.8721V348.348H395.698V171.066Z" fill="#0068FF"/>
<path d="M295.786 357.989H197.784V382.533H295.786V357.989Z" fill="#5A9CFF"/>
<path d="M342.691 396.624C324.768 382.154 288.55 372.261 246.785 372.261C205.02 372.261 168.802 382.154 150.879 396.624H342.691Z" fill="#5A9CFF"/>
<path d="M150.879 399.124C152.592 399.124 154.305 399.124 156.018 399.124C160.679 399.124 165.341 399.124 170.002 399.124C176.861 399.124 183.72 399.124 190.579 399.124C198.983 399.124 207.387 399.124 215.791 399.124C224.997 399.124 234.204 399.124 243.41 399.124C252.662 399.124 261.914 399.124 271.166 399.124C279.832 399.124 288.499 399.124 297.165 399.124C304.488 399.124 311.81 399.124 319.133 399.124C324.378 399.124 329.623 399.124 334.867 399.124C337.364 399.124 339.87 399.185 342.367 399.124C342.475 399.121 342.583 399.124 342.69 399.124C345.907 399.124 345.913 394.124 342.69 394.124C340.977 394.124 339.264 394.124 337.551 394.124C332.89 394.124 328.228 394.124 323.567 394.124C316.708 394.124 309.849 394.124 302.99 394.124C294.586 394.124 286.182 394.124 277.778 394.124C268.572 394.124 259.365 394.124 250.159 394.124C240.907 394.124 231.655 394.124 222.403 394.124C213.737 394.124 205.07 394.124 196.404 394.124C189.081 394.124 181.759 394.124 174.436 394.124C169.191 394.124 163.946 394.124 158.702 394.124C156.205 394.124 153.699 394.063 151.202 394.124C151.094 394.127 150.986 394.124 150.879 394.124C147.662 394.124 147.656 399.124 150.879 399.124Z" fill="#5A9CFF"/>
<path d="M379.431 183.4H114.139V336.783H379.431V183.4Z" fill="white"/>
<path d="M379.431 183.4H114.139V198.18H379.431V183.4Z" fill="#E2E6FF"/>
<path d="M127.035 191.13C127.035 192.998 125.521 194.512 123.653 194.512C121.785 194.512 120.271 192.998 120.271 191.13C120.271 189.262 121.785 187.748 123.653 187.748C125.52 187.748 127.035 189.262 127.035 191.13Z" fill="#EB725F"/>
<path d="M138.423 191.13C138.423 192.998 136.909 194.512 135.041 194.512C133.173 194.512 131.659 192.998 131.659 191.13C131.659 189.262 133.173 187.748 135.041 187.748C136.909 187.748 138.423 189.262 138.423 191.13Z" fill="#F9AB43"/>
<path d="M149.812 191.13C149.812 192.998 148.298 194.512 146.43 194.512C144.562 194.512 143.048 192.998 143.048 191.13C143.048 189.262 144.562 187.748 146.43 187.748C148.298 187.748 149.812 189.262 149.812 191.13Z" fill="#6E7FDD"/>
<path d="M336.512 221.62C336.512 230.761 328.656 238.24 319.055 238.24H171.457C161.855 238.24 154 230.761 154 221.62C154 212.479 161.856 205 171.457 205H319.055C328.656 205 336.512 212.479 336.512 221.62Z" fill="#E2E6FF"/>
<path d="M190.509 229.455L184.452 223.819C185.366 222.525 185.838 220.979 185.78 219.368C185.71 217.423 184.887 215.622 183.462 214.296C182.037 212.97 180.182 212.279 178.237 212.349C176.292 212.419 174.491 213.242 173.166 214.667C171.84 216.092 171.148 217.948 171.218 219.892C171.288 221.837 172.111 223.638 173.536 224.964C174.961 226.29 176.816 226.981 178.761 226.911C180.371 226.853 181.879 226.272 183.104 225.267L189.161 230.903L190.509 229.455ZM174.884 223.516C173.846 222.55 173.247 221.238 173.196 219.822C173.145 218.405 173.649 217.054 174.615 216.016C175.58 214.978 176.893 214.379 178.309 214.328C179.726 214.277 181.077 214.781 182.115 215.746C183.153 216.712 183.752 218.024 183.803 219.44C183.854 220.857 183.35 222.208 182.384 223.246C181.418 224.284 180.106 224.883 178.69 224.934C177.273 224.986 175.921 224.482 174.884 223.516Z" fill="#6E7FDD"/>
<path d="M216.774 223.05C217.72 223.05 218.487 222.283 218.487 221.337C218.487 220.391 217.72 219.624 216.774 219.624C215.828 219.624 215.061 220.391 215.061 221.337C215.061 222.283 215.828 223.05 216.774 223.05Z" fill="#B6C3F2"/>
<path d="M236.774 223.05C237.72 223.05 238.487 222.283 238.487 221.337C238.487 220.391 237.72 219.624 236.774 219.624C235.828 219.624 235.061 220.391 235.061 221.337C235.061 222.283 235.828 223.05 236.774 223.05Z" fill="#B6C3F2"/>
<path d="M256.774 223.05C257.72 223.05 258.487 222.283 258.487 221.337C258.487 220.391 257.72 219.624 256.774 219.624C255.828 219.624 255.061 220.391 255.061 221.337C255.061 222.283 255.828 223.05 256.774 223.05Z" fill="#B6C3F2"/>
<path d="M276.774 223.05C277.72 223.05 278.487 222.283 278.487 221.337C278.487 220.391 277.72 219.624 276.774 219.624C275.828 219.624 275.061 220.391 275.061 221.337C275.061 222.283 275.828 223.05 276.774 223.05Z" fill="#B6C3F2"/>
<path d="M438.494 123.526H306.447V268.805H438.494V123.526Z" fill="#F5F9FF"/>
<path d="M438.494 123.526H306.447V139.903H438.494V123.526Z" fill="#0068FF"/>
<path d="M320.736 132.092C320.736 134.162 319.058 135.84 316.988 135.84C314.918 135.84 313.24 134.162 313.24 132.092C313.24 130.022 314.918 128.344 316.988 128.344C319.058 128.344 320.736 130.023 320.736 132.092Z" fill="#EB725F"/>
<path d="M333.356 132.092C333.356 134.162 331.678 135.84 329.608 135.84C327.538 135.84 325.86 134.162 325.86 132.092C325.86 130.022 327.538 128.344 329.608 128.344C331.678 128.344 333.356 130.023 333.356 132.092Z" fill="#F9AB43"/>
<path d="M345.975 132.092C345.975 134.162 344.297 135.84 342.227 135.84C340.157 135.84 338.479 134.162 338.479 132.092C338.479 130.022 340.157 128.344 342.227 128.344C344.297 128.344 345.975 130.023 345.975 132.092Z" fill="#AEC8EE"/>
<path d="M399.719 214.598L394.266 220.052L443.146 268.932L448.6 263.478L399.719 214.598Z" fill="#0068FF"/>
<path d="M401.415 211.484L391.153 221.746L405.456 236.049L415.718 225.788L401.415 211.484Z" fill="#5A9CFF"/>
<g opacity="0.2">
<path d="M396.997 217.324C384.212 230.109 363.408 230.109 350.623 217.324C337.838 204.539 337.838 183.735 350.623 170.95C363.408 158.165 384.212 158.165 396.997 170.95C409.782 183.735 409.782 204.539 396.997 217.324Z" fill="#F5F9FF"/>
</g>
<path d="M400.11 220.437C385.609 234.938 362.012 234.939 347.511 220.437C333.01 205.935 333.01 182.339 347.511 167.838C362.012 153.337 385.609 153.336 400.11 167.838C414.611 182.339 414.611 205.935 400.11 220.437ZM352.964 173.291C341.469 184.786 341.47 203.488 352.964 214.982C364.458 226.476 383.161 226.477 394.655 214.982C406.15 203.487 406.149 184.785 394.655 173.291C383.161 161.797 364.459 161.796 352.964 173.291Z" fill="#0068FF"/>
<path d="M390.12 182.63L385.317 177.827L373.81 189.334L362.303 177.827L357.5 182.63L369.007 194.137L357.5 205.643L362.303 210.447L373.81 198.94L385.317 210.447L390.12 205.643L378.613 194.137L390.12 182.63Z" fill="#5A9CFF"/>
<path d="M163.382 291.374H103.649V399.285H195.784V322.414L163.382 291.374Z" fill="#0068FF"/>
<path d="M163.382 291.374L195.784 322.414H163.382V291.374Z" fill="#5A9CFF"/>
<path d="M139.89 332.845C139.89 336.084 138.008 338.71 135.687 338.71C133.366 338.71 131.484 336.084 131.484 332.845C131.484 329.606 133.366 326.98 135.687 326.98C138.008 326.98 139.89 329.606 139.89 332.845Z" fill="white"/>
<path d="M163.629 338.71C165.95 338.71 167.832 336.084 167.832 332.845C167.832 329.606 165.95 326.98 163.629 326.98C161.308 326.98 159.426 329.606 159.426 332.845C159.426 336.084 161.308 338.71 163.629 338.71Z" fill="white"/>
<path d="M137.968 350.451C139.717 348.536 142.149 347.03 144.57 346.157C150.696 343.948 156.618 346.256 161.284 350.451C162.53 351.571 164.381 349.731 163.129 348.606C157.956 343.956 151.246 341.224 144.365 343.473C141.347 344.459 138.283 346.239 136.122 348.606C134.993 349.844 136.833 351.695 137.968 350.451Z" fill="white"/>
<path d="M113.477 97H46.287C42.279 97 39 100.279 39 104.287V151.418C39 155.426 42.279 158.705 46.287 158.705H69.895L79.882 170.87L89.869 158.705H113.477C117.485 158.705 120.764 155.426 120.764 151.418V104.287C120.764 100.279 117.485 97 113.477 97Z" fill="#0068FF"/>
<path d="M79.8821 105.757C67.6131 105.757 57.6321 115.738 57.6321 128.007C57.6321 140.276 67.6131 150.257 79.8821 150.257C92.1511 150.257 102.132 140.275 102.132 128.007C102.132 115.738 92.1511 105.757 79.8821 105.757ZM79.8821 109.952C84.1051 109.952 87.9911 111.414 91.0701 113.852L65.7281 139.195C63.2901 136.116 61.8281 132.23 61.8281 128.007C61.8271 118.052 69.9271 109.952 79.8821 109.952ZM79.8821 146.061C75.6591 146.061 71.7731 144.6 68.6941 142.161L94.0361 116.819C96.4751 119.897 97.9361 123.784 97.9361 128.007C97.9371 137.962 89.8381 146.061 79.8821 146.061Z" fill="white"/>
<path d="M382.699 298.928L326.972 298.56L326.308 399.232L412.262 399.8L412.736 328.085L382.699 298.928Z" fill="#AEC8EE"/>
<path d="M382.699 298.928L412.736 328.085L382.508 327.885L382.699 298.928Z" fill="#E3EBFC"/>
<path d="M387.847 336.455L382.539 331.077L369.653 343.793L356.935 330.908L351.557 336.216L364.274 349.101L351.388 361.818L356.696 367.196L369.582 354.48L382.3 367.365L387.678 362.057L374.961 349.172L387.847 336.455Z" fill="#EEF4FF"/>
<path d="M101.725 221.275L68.375 204.559L38.176 264.808L89.618 290.592L111.129 247.673L101.725 221.275Z" fill="#AEC8EE"/>
<path d="M101.725 221.275L111.129 247.673L93.0391 238.605L101.725 221.275Z" fill="#E3EBFC"/>
<path d="M93.7081 245.331L92.1131 240.531L80.6121 244.352L76.7901 232.85L71.9901 234.445L75.8111 245.946L64.3101 249.767L65.9051 254.568L77.4061 250.747L81.2281 262.248L86.0291 260.653L82.2071 249.152L93.7081 245.331Z" fill="#EEF4FF"/>
<path d="M226.476 109.437L199.784 118.123L215.475 166.344L256.647 152.947L245.469 118.596L226.476 109.437Z" fill="#AEC8EE"/>
<path d="M226.476 109.437L245.469 118.596L230.99 123.307L226.476 109.437Z" fill="#E3EBFC"/>
<path d="M234.904 126.554L231.512 124.828L227.376 132.955L219.248 128.818L217.522 132.21L225.649 136.347L221.512 144.474L224.904 146.2L229.041 138.073L237.168 142.21L238.895 138.817L230.768 134.681L234.904 126.554Z" fill="#EEF4FF"/>
<path d="M308.879 104.81L306.542 104.802C306.054 102.736 305.247 100.798 304.173 99.034L305.834 97.385C307.129 96.099 307.137 93.986 305.85 92.691L303.923 90.75C302.636 89.455 300.524 89.447 299.229 90.734L297.568 92.383C295.811 91.298 293.879 90.477 291.817 89.975L291.825 87.637C291.831 85.811 290.343 84.312 288.517 84.306L285.782 84.297C283.956 84.291 282.457 85.779 282.451 87.605L282.443 89.943C280.377 90.432 278.439 91.238 276.675 92.312L275.026 90.651C273.739 89.355 271.627 89.348 270.332 90.635L268.391 92.562C267.096 93.849 267.088 95.961 268.375 97.256L270.024 98.917C268.938 100.674 268.118 102.606 267.615 104.669L265.277 104.661C263.451 104.655 261.952 106.143 261.946 107.969L261.937 110.704C261.931 112.53 263.419 114.029 265.245 114.035L267.583 114.043C268.071 116.109 268.878 118.047 269.952 119.811L268.291 121.46C266.996 122.746 266.988 124.859 268.275 126.154L270.202 128.095C271.488 129.39 273.601 129.398 274.897 128.111L276.557 126.462C278.314 127.548 280.246 128.368 282.309 128.871L282.301 131.209C282.295 133.035 283.783 134.534 285.609 134.54L288.344 134.549C290.17 134.555 291.668 133.067 291.675 131.241L291.683 128.903C293.749 128.415 295.687 127.608 297.451 126.534L299.1 128.195C300.386 129.49 302.499 129.498 303.794 128.211L305.735 126.284C307.03 124.998 307.038 122.885 305.751 121.59L304.102 119.93C305.188 118.173 306.008 116.241 306.511 114.178L308.848 114.186C310.674 114.192 312.173 112.704 312.179 110.878L312.188 108.143C312.193 106.316 310.704 104.817 308.879 104.81ZM287.029 118.684C281.914 118.666 277.782 114.505 277.799 109.39C277.817 104.275 281.978 100.143 287.093 100.16C292.208 100.178 296.34 104.338 296.323 109.454C296.305 114.569 292.144 118.701 287.029 118.684Z" fill="#0068FF"/>
<path d="M287.107 96.208C279.809 96.183 273.872 102.079 273.847 109.376C273.822 116.674 279.717 122.611 287.015 122.636C294.313 122.661 300.249 116.765 300.275 109.467C300.3 102.17 294.405 96.233 287.107 96.208ZM287.033 117.628C282.501 117.612 278.84 113.926 278.855 109.394C278.871 104.862 282.557 101.201 287.089 101.216C291.621 101.232 295.282 104.918 295.267 109.451C295.251 113.982 291.565 117.644 287.033 117.628Z" fill="#5A9CFF"/>
<path d="M283.94 265.675C283.505 263.778 281.523 262.375 279.203 262.375H209.797C207.477 262.375 205.495 263.778 205.06 265.675L201 283V287.125C201 289.394 203.175 291.25 205.833 291.25V311.875C205.833 314.144 208.008 316 210.667 316H249.333C251.992 316 254.167 314.144 254.167 311.875V291.25H273.5V311.875C273.5 314.144 275.675 316 278.333 316C280.992 316 283.167 314.144 283.167 311.875V291.25C285.825 291.25 288 289.394 288 287.125V283L283.94 265.675ZM244.5 307.75H215.5V291.25H244.5V307.75ZM210.667 258.25H278.333C280.992 258.25 283.167 256.394 283.167 254.125C283.167 251.856 280.992 250 278.333 250H210.667C208.008 250 205.833 251.856 205.833 254.125C205.833 256.394 208.008 258.25 210.667 258.25Z" fill="#0068FF"/>
<path d="M268 264C262.486 264 258 268.262 258 273.5C258 278.738 262.486 283 268 283C273.514 283 278 278.738 278 273.5C278 268.262 273.514 264 268 264ZM268 265.791C269.898 265.791 271.644 266.415 273.028 267.456L261.639 278.277C260.543 276.962 259.886 275.303 259.886 273.5C259.885 269.25 263.526 265.791 268 265.791ZM268 281.208C266.102 281.208 264.356 280.585 262.972 279.543L274.361 268.723C275.458 270.037 276.114 271.697 276.114 273.5C276.115 277.75 272.475 281.208 268 281.208Z" fill="white"/>
<path d="M125.978 362.646H128.376L130.763 366.375V362.646H133.368V370.667H130.969L128.583 366.926V370.667H125.978V362.646ZM138.3 370.839C137.482 370.839 136.74 370.663 136.074 370.311C135.416 369.959 134.896 369.469 134.514 368.842C134.131 368.207 133.94 367.481 133.94 366.662C133.94 365.843 134.131 365.117 134.514 364.482C134.896 363.847 135.416 363.354 136.074 363.002C136.74 362.65 137.482 362.474 138.3 362.474C139.111 362.474 139.845 362.65 140.503 363.002C141.169 363.354 141.693 363.847 142.075 364.482C142.458 365.117 142.649 365.843 142.649 366.662C142.649 367.481 142.458 368.207 142.075 368.842C141.693 369.469 141.169 369.959 140.503 370.311C139.845 370.663 139.111 370.839 138.3 370.839ZM138.3 368.28C138.759 368.28 139.138 368.135 139.436 367.844C139.734 367.553 139.884 367.159 139.884 366.662C139.884 366.165 139.734 365.771 139.436 365.48C139.138 365.189 138.759 365.044 138.3 365.044C137.833 365.044 137.451 365.189 137.153 365.48C136.854 365.771 136.705 366.165 136.705 366.662C136.705 367.159 136.854 367.553 137.153 367.844C137.459 368.135 137.841 368.28 138.3 368.28ZM146.663 362.646H149.739C150.626 362.646 151.402 362.807 152.068 363.128C152.741 363.449 153.261 363.908 153.629 364.505C153.996 365.101 154.179 365.805 154.179 366.616C154.179 367.947 153.782 368.957 152.986 369.645C152.198 370.326 151.116 370.667 149.739 370.667H146.663V362.646ZM149.922 368.142C150.917 368.142 151.414 367.634 151.414 366.616C151.414 366.149 151.284 365.794 151.024 365.549C150.764 365.297 150.397 365.17 149.922 365.17H149.383V368.142H149.922ZM156.987 362.646H159.557L162.77 370.667H159.981L159.465 369.267H157.078L156.562 370.667H153.774L156.987 362.646ZM158.868 367.27L158.272 365.423L157.675 367.27H158.868ZM163.567 364.929H161.513V362.646H168.34V364.929H166.286V370.667H163.567V364.929ZM170.288 362.646H172.858L176.071 370.667H173.282L172.766 369.267H170.379L169.863 370.667H167.075L170.288 362.646ZM172.169 367.27L171.573 365.423L170.976 367.27H172.169Z" fill="white"/>
<path d="M466.374 181.059H459.777V174.462H455.096V181.059H448.5V185.74H455.096V192.337H459.777V185.74H466.374V181.059Z" fill="#5A9CFF"/>
<path d="M431.515 285.505H425.686V279.676H421.55V285.505H415.722V289.642H421.55V295.471H425.686V289.642H431.515V285.505Z" fill="#5A9CFF"/>
<path d="M182.526 117.823H176.697V111.993H172.56V117.823H166.732V121.959H172.56V127.788H176.697V121.959H182.526V117.823Z" fill="#5A9CFF"/>
<path d="M455.54 210.775H451.313V206.547H448.313V210.775H444.086V213.775H448.313V218.002H451.313V213.775H455.54V210.775Z" fill="#CAD2F9"/>
<path d="M163.511 143.393H159.284V139.166H156.284V143.393H152.057V146.393H156.284V150.621H159.284V146.393H163.511V143.393Z" fill="#5A9CFF"/>
<path d="M52.6861 194.38H46.8561V188.551H42.7201V194.38H36.8921V198.517H42.7201V204.346H46.8561V198.517H52.6861V194.38Z" fill="#5A9CFF"/>
<path d="M54.818 376.182H50.591V371.954H47.591V376.182H43.364V379.182H47.591V383.409H50.591V379.182H54.818V376.182Z" fill="#CAD2F9"/>
<path d="M43.3639 295.284C45.5233 295.284 47.2739 293.533 47.2739 291.374C47.2739 289.215 45.5233 287.464 43.3639 287.464C41.2044 287.464 39.4539 289.215 39.4539 291.374C39.4539 293.533 41.2044 295.284 43.3639 295.284Z" fill="#E2E6FF"/>
<path d="M458.742 247.673C458.742 248.813 457.818 249.737 456.677 249.737C455.537 249.737 454.613 248.813 454.613 247.673C454.613 246.533 455.537 245.608 456.677 245.608C457.818 245.608 458.742 246.532 458.742 247.673Z" fill="#E2E6FF"/>
<path d="M457.159 377.682C457.159 379.841 455.409 381.592 453.249 381.592C451.09 381.592 449.339 379.842 449.339 377.682C449.339 375.523 451.089 373.772 453.249 373.772C455.409 373.772 457.159 375.522 457.159 377.682Z" fill="#5A9CFF"/>
<path d="M182.104 83.376C182.104 84.516 181.18 85.441 180.039 85.441C178.899 85.441 177.975 84.517 177.975 83.376C177.975 82.236 178.899 81.312 180.039 81.312C181.18 81.311 182.104 82.236 182.104 83.376Z" fill="#E2E6FF"/>
<path d="M138.951 85.899C138.951 88.058 137.201 89.809 135.041 89.809C132.881 89.809 131.131 88.058 131.131 85.899C131.131 83.74 132.882 81.989 135.041 81.989C137.2 81.989 138.951 83.74 138.951 85.899Z" fill="#E2E6FF"/>
<path d="M210.204 99.809C212.363 99.809 214.114 98.0585 214.114 95.899C214.114 93.7396 212.363 91.989 210.204 91.989C208.045 91.989 206.294 93.7396 206.294 95.899C206.294 98.0585 208.045 99.809 210.204 99.809Z" fill="#5A9CFF"/>
<path d="M37.755 230.695C37.755 231.835 36.831 232.76 35.69 232.76C34.55 232.76 33.626 231.836 33.626 230.695C33.626 229.555 34.55 228.631 35.69 228.631C36.831 228.631 37.755 229.555 37.755 230.695Z" fill="#E2E6FF"/>
<path d="M76.7179 298.927C76.7179 300.067 75.7939 300.992 74.6529 300.992C73.5129 300.992 72.5889 300.068 72.5889 298.927C72.5889 297.787 73.5129 296.863 74.6529 296.863C75.7929 296.863 76.7179 297.787 76.7179 298.927Z" fill="#E2E6FF"/>
<path d="M448.605 139.399C448.605 140.539 447.681 141.464 446.54 141.464C445.4 141.464 444.476 140.54 444.476 139.399C444.476 138.259 445.4 137.335 446.54 137.335C447.68 137.335 448.605 138.259 448.605 139.399Z" fill="#E2E6FF"/>
<path d="M371.682 101.744C371.682 102.884 370.758 103.808 369.617 103.808C368.477 103.808 367.553 102.884 367.553 101.744C367.553 100.604 368.477 99.679 369.617 99.679C370.758 99.68 371.682 100.604 371.682 101.744Z" fill="#E2E6FF"/>
<path d="M402.915 93.628C405.074 93.628 406.825 91.8774 406.825 89.718C406.825 87.5586 405.074 85.808 402.915 85.808C400.755 85.808 399.005 87.5586 399.005 89.718C399.005 91.8774 400.755 93.628 402.915 93.628Z" fill="#5A9CFF"/>
<path d="M465.438 357.989C465.438 359.129 464.514 360.054 463.373 360.054C462.233 360.054 461.309 359.13 461.309 357.989C461.309 356.849 462.233 355.924 463.373 355.924C464.514 355.924 465.438 356.849 465.438 357.989Z" fill="#E2E6FF"/>
<path d="M95.773 89.809C95.773 90.949 94.849 91.873 93.708 91.873C92.568 91.873 91.644 90.949 91.644 89.809C91.644 88.669 92.568 87.744 93.708 87.744C94.848 87.744 95.773 88.669 95.773 89.809Z" fill="#E2E6FF"/>
</g>
<defs>
<clipPath id="clip0_30_13">
<rect width="500" height="500" fill="white"/>
</clipPath>
</defs>
</svg>
